# xmcd
#
# Track frame offsets:
#	150
#	26368
#	45475
#	72843
#	90398
#	112420
#	142783
#	168090
#	197198
#	216870
#
# Disc length: 3118 seconds
#
# Revision: 2606419378
# Processed by: cddbd v1.5.2PL0 Copyright (c) Steve Scherf et al.
# Submitted via: EZCDAudioConverter 8.0.2.1
#
DISCID=830c2c0a
DTITLE=Hương Lan - Tình Ca Yêu Em
DYEAR=1994
DGENRE=East Asia
TTITLE0=Ngõ hồn qua đêm
TTITLE1=Yêu người như thế đó
TTITLE2=Không bao giờ quên anh
TTITLE3=Cố đô yêu dấu
TTITLE4=Xin trả lại thời gian
TTITLE5=Vọng gác đêm sương
TTITLE6=Chuyến đò không em
TTITLE7=Tâm Sự với anh
TTITLE8=Gió cuốn mây trôi
TTITLE9=Mong chờ
EXTD=
EXTT0=
EXTT1=
EXTT2=
EXTT3=
EXTT4=
EXTT5=
EXTT6=
EXTT7=
EXTT8=
EXTT9=
PLAYORDER=
